<svg xmlns="http://www.w3.org/2000/svg" width="47" height="43"><g data-name="Vector Smart Object"><g data-name="Group 3" transform="translate(-21.272 -24.307)"><path data-name="Path 5141" d="M56.928 37.212v17.13a3.993 3.993 0 0 1-3.992 3.992l-13.836.059-8.1 8.914v-8.914h-5.735a3.994 3.994 0 0 1-3.992-4V37.272a4 4 0 0 1 3.992-4l27.671-.055a3.992 3.992 0 0 1 3.992 3.991zm0 0" fill="#fff"/><path data-name="Path 5142" d="M39.1 42.134H28.565a.811.811 0 1 1 0-1.622H39.1a.811.811 0 0 1 0 1.622zm0 0" fill="#141414"/><path data-name="Path 5143" d="M49.636 46.991H28.565a.809.809 0 1 1 0-1.617h21.071a.809.809 0 1 1 0 1.617zm0 0" fill="#141414"/><path data-name="Path 5144" d="M49.636 51.854H28.565a.809.809 0 1 1 0-1.617h21.071a.809.809 0 1 1 0 1.617zm0 0" fill="#141414"/><path data-name="Path 5145" d="M64.28 24.363l-27.666-.056a4 4 0 0 0-4 3.991v4.962l20.319-.04a3.992 3.992 0 0 1 3.992 3.991v14.944l5.675 6.238V49.48h1.68a3.992 3.992 0 0 0 3.992-3.991V28.358a3.993 3.993 0 0 0-3.992-4zm0 0" fill="#fff" opacity=".5"/></g></g></svg>