<svg height="41" viewBox="0 0 47 41" width="47" xmlns="http://www.w3.org/2000/svg" xmlns:xlink="http://www.w3.org/1999/xlink"><clipPath id="a"><path d="m.829 3.868h47v41h-47z"/></clipPath><g transform="translate(-.829 -3.868)"><g clip-path="url(#a)"><path d="m19.273 3.878s-12.373-.819-12.373 12.279c0 8.722-2.267 11.773-3.781 12.843a.936.936 0 0 0 .1 1.565 13.3 13.3 0 0 0 8.4 1.845.225.225 0 0 1 .155.412l-8.649 4.948a4.543 4.543 0 0 0 -2.3 3.94v1.027a2.067 2.067 0 0 0 2.082 2.063h12.31l13.164-5.617-3.12-34.159a14.244 14.244 0 0 0 -5.988-1.146zm0 0" fill="#fff" opacity=".5"/></g><path d="m44.555 17.153a1.6 1.6 0 0 1 -.681-1.255c-.025-2.855-.96-12.021-11.919-12.021-.148 0-.288.008-.433.011s-.284-.011-.432-.011c-10.953 0-11.893 9.157-11.919 12.016a1.556 1.556 0 0 1 -.657 1.241 3.081 3.081 0 0 0 -1.214 3.627 13.7 13.7 0 0 0 3.344 4.464 1.542 1.542 0 0 1 .489 1.092c.173 4.626 2.107 6.293 3.329 6.9a2.026 2.026 0 0 1 1.218 1.777c0 .953-1.024 1.677-1.832 2.192l-5.032 1.11a4.567 4.567 0 0 0 -3.6 4.448v2.056h23.7l2.884-17.177c.051-.409.091-.838.107-1.305a1.541 1.541 0 0 1 .489-1.092 13.644 13.644 0 0 0 3.36-4.5 3.053 3.053 0 0 0 -1.206-3.571zm0 0" fill="#fff"/><path d="m47.829 35.968a8.914 8.914 0 1 1 -8.913-8.828 8.871 8.871 0 0 1 8.913 8.828zm0 0" fill="#09142e"/><g fill="#fff"><path d="m38.916 41.586a.806.806 0 0 1 -.811-.8v-9.63a.81.81 0 0 1 1.621 0v9.63a.807.807 0 0 1 -.81.8zm0 0"/><path d="m43.778 36.77h-9.725a.8.8 0 1 1 0-1.6h9.725a.8.8 0 1 1 0 1.6zm0 0"/></g></g></svg>